{"title":"For Colored Girls 2010 CAM READ NFO LKRG","uid":5945619,"size":4508891919,"categoryP":"video","categoryS":"movies","magnet":"?xt=urn:btih:f7bcd6e00b61fa679774d06d5fcb6a81d8b2d828&amp;dn=For+Colored+Girls+2010+CAM+READ+NFO+LKRG&amp;tr=udp%3A%2F%2Ftracker.openbittorrent.com%3A80&amp;tr=udp%3A%2F%2Fopen.demonii.com%3A1337&amp;tr=udp%3A%2F%2Ftracker.coppersurfer.tk%3A6969&amp;tr=udp%3A%2F%2Fexodus.desync.com%3A6969","seeders":1,"leechers":0,"uploader":"deffjam555","files":7,"time":1289350393,"description":"Format;Avi\n\nFile Size:4.3gb\n\nVideo: ID : 224 (0xE0)\nFormat : MPEG Video\nFormat version : Version 2\nFormat profile : Main@Main\nFormat settings, BVOP : Yes\nFormat settings, Matrix : Default\nFormat settings, GOP : M=3, N=15\nDuration : 5mn 18s\nBit rate mode : Variable\nBit rate : 5 057 Kbps\nNominal bit rate : 8 808 Kbps\nWidth : 720 pixels\nHeight : 480 pixels\nDisplay aspect ratio : 4:3\nFrame rate : 29.970 fps\nStandard : NTSC\nColor space : YUV\nChroma subsampling : 4:2:0\nBit depth : 8 bits\nScan type : Progressive\nBits/(Pixel*Frame) : 0.488\nStream size : 192 MiB (94%)\n\nAudio: ID : 128 (0x80)\nFormat : AC-3\nFormat/Info : Audio Coding 3\nMode extension : CM (complete main)\nDuration : 5mn 19s\nBit rate mode : Constant\nBit rate : 192 Kbps\nChannel(s) : 2 channels\nChannel positions : Front: L R\nSampling rate : 48.0 KHz\nBit depth : 16 bits\nVideo delay : -419ms\nStream size : 7.31 MiB (4%)\n\n\nDuration:1:54\n\nRelease Date:2010\n\nLanguage:English\n\n\nPlot: Each of the women portray one of the characters represented in the collection of twenty poems, revealing different issues that impact women in general and women of color in particular.\n\nCast: Kimberly Elise ...\nCrystal / Brown\nJanet Jackson Janet Jackson ...\nJo / Red\nLoretta Devine Loretta Devine ...\nJuanita / Green\nThandie Newton Thandie Newton ...\nTangie / Orange\nAnika Noni Rose Anika Noni Rose ...\nYasmine / Yellow\nKerry Washington Kerry Washington ...\nKelly / Blue\nTessa Thompson Tessa Thompson ...\nNyla / Purple\nPhylicia Rashad Phylicia Rashad ...\nGilda\nWhoopi Goldberg Whoopi Goldberg ...\nAlice / White\n\n","torrent":{"xt":"urn:btih:f7bcd6e00b61fa679774d06d5fcb6a81d8b2d828","amp;dn":"For+Colored+Girls+2010+CAM+READ+NFO+LKRG","amp;tr":["udp%3A%2F%2Ftracker.openbittorrent.com%3A80","udp%3A%2F%2Fopen.demonii.com%3A1337","udp%3A%2F%2Ftracker.coppersurfer.tk%3A6969","udp%3A%2F%2Fexodus.desync.com%3A6969"],"infoHash":"f7bcd6e00b61fa679774d06d5fcb6a81d8b2d828","infoHashBuffer":{"type":"Buffer","data":[247,188,214,224,11,97,250,103,151,116,208,109,95,203,106,129,216,178,216,40]},"announce":[],"urlList":[]}}